<?xml version="1.0" encoding="UTF-8"?>
<svg width="93px" height="77px" viewBox="0 0 93 77" version="1.1" xmlns="http://www.w3.org/2000/svg" xmlns:xlink="http://www.w3.org/1999/xlink">
    <title>success_icon</title>
    <g id="Page-1" stroke="none" stroke-width="1" fill="none" fill-rule="evenodd">
        <g id="success_icon" fill="#00B13F" fill-rule="nonzero">
            <path d="M89.8030003,44.6789998 C80.2650003,30.6609998 81.5440003,16.4489998 76.9440003,9.69299976 C72.3440003,2.93699976 58.5090003,-8.79600024 25.0250003,10.8269998 C-8.45899969,30.4499998 -0.387999691,52.4129998 4.66900031,59.8439998 C28.3440003,94.6349998 106.694,69.5059998 89.8030003,44.6789998 Z" id="Path" opacity="0.049"></path>
            <g id="Group" transform="translate(22.359299, 17.892000)">
                <g id="Path" transform="translate(11.401409, 6.033812)">
                    <path d="M35.2382925,0.530187758 C34.8990113,0.190724064 34.4387377,0 33.9587925,0 C33.4788474,0 33.0185738,0.190724064 32.6792925,0.530187758 L10.9722925,22.1771878 L3.14029254,13.6711878 C2.70246358,13.1956672 2.04420572,12.9898471 1.41347837,13.1312578 C0.782751008,13.2726686 0.275376647,13.7398266 0.0824783096,14.3567579 C-0.110420028,14.9736892 0.040463508,15.6466673 0.478292544,16.1221878 L9.58629254,26.0131878 C9.91982413,26.3756198 10.3868492,26.5861964 10.8792925,26.5961878 L10.9182925,26.5961878 C11.3970143,26.5958873 11.8561429,26.4060518 12.1952925,26.0681878 L35.2322925,3.08918776 C35.572553,2.75070311 35.7643571,2.29087643 35.765502,1.81093088 C35.7666077,1.33098532 35.576962,0.870264268 35.2382925,0.530187758 Z"></path>
                </g>
                <g id="Path">
                    <path d="M46.2017016,22.2 C45.7217516,22.1999999 45.2614738,22.3907277 44.9221917,22.7301973 C44.5829097,23.069667 44.3924363,23.5300501 44.3927016,24.01 C44.3904924,35.2691686 35.2615373,44.3948405 24.0023687,44.3929996 C12.7432001,44.3911588 3.61722955,35.2625022 3.61870215,24.0033335 C3.62017475,12.7441648 12.7485329,3.61789567 24.0077016,3.619 C25.0070608,3.619 25.8172016,2.80885925 25.8172016,1.8095 C25.8172016,0.810140745 25.0070608,-8.6697316e-16 24.0077016,-8.6697316e-16 C14.2980899,-8.6697316e-16 5.54432432,5.84821321 1.82833655,14.8186086 C-1.88765122,23.789004 0.165953404,34.1145766 7.03154264,40.9804518 C13.8971319,47.846327 24.2226189,49.9003618 33.1931691,46.1847477 C42.1637192,42.4691336 48.0127016,33.7156116 48.0127016,24.006 C48.011046,23.0073074 47.200395,22.1988945 46.2017016,22.2 Z"></path>
                </g>
            </g>
        </g>
    </g>
</svg>